<svg xmlns="http://www.w3.org/2000/svg"  viewBox="0 0 24 24" width="24px" height="24px"><path d="M 19.5 0 C 18.121094 0 17 1.121094 17 2.5 C 17 2.566406 17.027344 2.625 17.03125 2.6875 C 11.804688 1.628906 9.496094 7.984375 7.8125 9.3125 C 6.210938 10.511719 1.789063 9.292969 1.1875 12.09375 C 0.109375 13.953125 3.480469 17.714844 8.59375 20.78125 C 9.140625 22.136719 10.445313 23.09375 12 23.09375 C 12.335938 23.09375 12.660156 23.050781 12.96875 22.96875 C 14.890625 23.714844 16.625 24.09375 18 24.09375 C 19.199219 24.09375 20.105469 23.792969 20.40625 23.09375 C 20.445313 23.023438 20.472656 22.949219 20.5 22.875 C 21.320313 21.8125 21.542969 20.695313 19.90625 17.90625 C 18.183594 15.097656 24.742188 8.664063 20.78125 4.65625 C 21.515625 4.222656 22 3.417969 22 2.5 C 22 1.121094 20.878906 0 19.5 0 Z M 3.59375 12.59375 C 5.695313 12.59375 8.898438 13.699219 12 15.5 C 12.136719 15.578125 12.242188 15.671875 12.375 15.75 C 12.25 15.738281 12.128906 15.6875 12 15.6875 C 10.105469 15.6875 8.5625 17.132813 8.34375 18.96875 C 4.007813 16.195313 2.222656 13.457031 2.40625 12.8125 C 2.507813 12.710938 2.792969 12.59375 3.59375 12.59375 Z M 15.25 17.6875 C 18.085938 19.914063 19.246094 21.875 19.09375 22.40625 C 18.992188 22.507813 18.707031 22.59375 17.90625 22.59375 C 17.003906 22.59375 15.871094 22.375 14.65625 22 C 15.308594 21.332031 15.6875 20.414063 15.6875 19.40625 C 15.6875 18.78125 15.523438 18.203125 15.25 17.6875 Z"/></svg>